<svg width="100%" viewBox="0 0 1500 1010" role="img" xmlns="http://www.w3.org/2000/svg" font-family="sans-serif">
<title>Alur Proses Penelitian Ekstraksi Flavonoid dari Serasah Gondorukem</title>
<desc>Infografis alur proses penelitian dari limbah serasah hingga aplikasi di PT Inhutani V Trenggalek</desc>
<defs>
  <marker id="arrow" viewBox="0 0 10 10" refX="8" refY="5" markerWidth="6" markerHeight="6" orient="auto-start-reverse">
    <path d="M2 1L8 5L2 9" fill="none" stroke="context-stroke" stroke-width="1.5" stroke-linecap="round" stroke-linejoin="round"/>
  </marker>
</defs>

<!-- ════════════════ HEADER JUDUL ════════════════ -->
<rect x="20" y="10" width="1460" height="55" rx="10" fill="#1B4D7E" opacity="0.92"/>
<text x="750" y="34" text-anchor="middle" font-size="16" font-weight="600" fill="#FFFFFF">Alur Proses Penelitian Ekstraksi Flavonoid Serasah Gondorukem</text>
<text x="750" y="54" text-anchor="middle" font-size="11" fill="#B5D4F4">Pinus merkusii sebagai Antioksidan — Aplikasi di PT. Inhutani V Trenggalek</text>

<!-- ════════════════ ROW 1: PREPARASI SAMPEL ════════════════ -->

<!-- Box 1.1: Limbah Serasah -->
<rect x="40" y="80" width="340" height="125" rx="10" fill="#E6F1FB" stroke="#378ADD" stroke-width="0.9"/>
<!-- Daun-daun tumpukan -->
<ellipse cx="120" cy="118" rx="32" ry="13" fill="#8BC34A" opacity="0.7"/>
<ellipse cx="108" cy="113" rx="25" ry="11" fill="#689F38" opacity="0.8"/>
<ellipse cx="132" cy="111" rx="22" ry="10" fill="#7CB342" opacity="0.75"/>
<ellipse cx="120" cy="108" rx="20" ry="9" fill="#558B2F" opacity="0.9"/>
<line x1="98" y1="122" x2="95" y2="134" stroke="#5D4037" stroke-width="1.5" stroke-linecap="round"/>
<line x1="120" y1="125" x2="120" y2="138" stroke="#5D4037" stroke-width="1.5" stroke-linecap="round"/>
<line x1="140" y1="122" x2="143" y2="134" stroke="#5D4037" stroke-width="1.5" stroke-linecap="round"/>
<!-- Karung -->
<rect x="96" y="130" width="48" height="32" rx="4" fill="#A1887F" stroke="#6D4C41" stroke-width="0.8"/>
<path d="M96 137 Q120 132 144 137" fill="none" stroke="#6D4C41" stroke-width="0.8"/>
<!-- Teks -->
<text x="230" y="105" font-size="12" font-weight="600" fill="#0C447C">Limbah Serasah</text>
<text x="230" y="125" font-size="10" fill="#185FA5">Sumber bahan baku</text>
<text x="230" y="148" font-size="9.5" fill="#378ADD">PT. Inhutani V</text>
<text x="230" y="161" font-size="9.5" fill="#378ADD">Trenggalek</text>
<text x="210" y="190" text-anchor="middle" font-size="10" font-weight="600" fill="#0C447C">1. Pengumpulan</text>

<!-- Panah ke kanan -->
<line x1="380" y1="142" x2="398" y2="142" stroke="#378ADD" stroke-width="1.8" marker-end="url(#arrow)"/>


<!-- Box 1.2: Pencucian Terpentin -->
<rect x="400" y="80" width="340" height="125" rx="10" fill="#E6F1FB" stroke="#378ADD" stroke-width="0.9"/>
<!-- Ember -->
<path d="M460 132 L468 158 L520 158 L528 132 Z" fill="#90CAF9" stroke="#1565C0" stroke-width="0.9"/>
<path d="M458 132 L530 132" stroke="#1565C0" stroke-width="1.4" stroke-linecap="round"/>
<!-- Tetesan cairan -->
<ellipse cx="485" cy="118" rx="4" ry="6" fill="#29B6F6" opacity="0.7"/>
<ellipse cx="494" cy="112" rx="3" ry="5" fill="#03A9F4" opacity="0.6"/>
<ellipse cx="503" cy="118" rx="3.5" ry="5.5" fill="#29B6F6" opacity="0.65"/>
<!-- Label terpentin -->
<rect x="465" y="100" width="58" height="14" rx="3" fill="#0288D1" opacity="0.18"/>
<text x="494" y="111" text-anchor="middle" font-size="9" fill="#01579B">Terpentin</text>
<!-- Daun di ember -->
<ellipse cx="480" cy="148" rx="9" ry="4" fill="#8BC34A" opacity="0.75"/>
<ellipse cx="500" cy="146" rx="8" ry="4" fill="#689F38" opacity="0.8"/>
<ellipse cx="515" cy="148" rx="7" ry="3.5" fill="#7CB342" opacity="0.75"/>
<!-- Teks -->
<text x="565" y="105" font-size="12" font-weight="600" fill="#0C447C">Pencucian</text>
<text x="565" y="120" font-size="11" font-weight="600" fill="#0C447C">Terpentin</text>
<text x="565" y="142" font-size="9.5" fill="#185FA5">Hilangkan resin</text>
<text x="565" y="155" font-size="9.5" fill="#378ADD">&amp; pengotor lain</text>
<text x="570" y="190" text-anchor="middle" font-size="10" font-weight="600" fill="#0C447C">2. Pencucian</text>

<!-- Panah -->
<line x1="740" y1="142" x2="758" y2="142" stroke="#378ADD" stroke-width="1.8" marker-end="url(#arrow)"/>

<!-- Box 1.3: Pengeringan -->
<rect x="760" y="80" width="340" height="125" rx="10" fill="#E6F1FB" stroke="#378ADD" stroke-width="0.9"/>
<!-- Matahari -->
<circle cx="820" cy="125" r="14" fill="#FFB300" opacity="0.85"/>
<line x1="820" y1="105" x2="820" y2="98" stroke="#FF8F00" stroke-width="1.6" stroke-linecap="round"/>
<line x1="820" y1="145" x2="820" y2="152" stroke="#FF8F00" stroke-width="1.6" stroke-linecap="round"/>
<line x1="800" y1="125" x2="793" y2="125" stroke="#FF8F00" stroke-width="1.6" stroke-linecap="round"/>
<line x1="840" y1="125" x2="847" y2="125" stroke="#FF8F00" stroke-width="1.6" stroke-linecap="round"/>
<line x1="806" y1="111" x2="801" y2="106" stroke="#FF8F00" stroke-width="1.6" stroke-linecap="round"/>
<line x1="834" y1="139" x2="839" y2="144" stroke="#FF8F00" stroke-width="1.6" stroke-linecap="round"/>
<line x1="834" y1="111" x2="839" y2="106" stroke="#FF8F00" stroke-width="1.6" stroke-linecap="round"/>
<line x1="806" y1="139" x2="801" y2="144" stroke="#FF8F00" stroke-width="1.6" stroke-linecap="round"/>
<!-- Garis pemisah -->
<line x1="858" y1="100" x2="858" y2="160" stroke="#B0BEC5" stroke-width="0.6" stroke-dasharray="3 2"/>
<!-- Oven -->
<rect x="878" y="110" width="46" height="32" rx="4" fill="#ECEFF1" stroke="#607D8B" stroke-width="0.9"/>
<rect x="882" y="114" width="38" height="20" rx="2" fill="#FF7043" opacity="0.4"/>
<text x="901" y="128" text-anchor="middle" font-size="9" fill="#37474F">40°C</text>
<rect x="878" y="144" width="46" height="6" rx="1" fill="#607D8B"/>


<!-- Teks pengeringan -->
<text x="950" y="105" font-size="12" font-weight="600" fill="#0C447C">Pengeringan</text>
<text x="950" y="125" font-size="9.5" fill="#185FA5">Matahari 1 hari</text>
<text x="950" y="140" font-size="9.5" fill="#185FA5">+ Oven 40°C</text>
<text x="950" y="155" font-size="9.5" fill="#378ADD">selama 5 jam</text>
<text x="930" y="190" text-anchor="middle" font-size="10" font-weight="600" fill="#0C447C">3. Pengeringan</text>

<!-- Panah -->
<line x1="1100" y1="142" x2="1118" y2="142" stroke="#378ADD" stroke-width="1.8" marker-end="url(#arrow)"/>

<!-- Box 1.4: Size Reduction (Chopper + Ayak) -->
<rect x="1120" y="80" width="340" height="125" rx="10" fill="#E6F1FB" stroke="#378ADD" stroke-width="0.9"/>
<!-- Chopper body -->
<rect x="1148" y="115" width="48" height="30" rx="4" fill="#CFD8DC" stroke="#607D8B" stroke-width="0.9"/>
<rect x="1152" y="108" width="40" height="10" rx="2" fill="#B0BEC5" stroke="#546E7A" stroke-width="0.6"/>
<rect x="1162" y="124" width="20" height="4" rx="1" fill="#78909C"/>
<rect x="1158" y="132" width="28" height="4" rx="1" fill="#90A4AE"/>
<line x1="1152" y1="146" x2="1148" y2="158" stroke="#A5D6A7" stroke-width="1.2" stroke-linecap="round"/>
<line x1="1170" y1="147" x2="1168" y2="160" stroke="#C8E6C9" stroke-width="1.2" stroke-linecap="round"/>
<line x1="1188" y1="146" x2="1192" y2="158" stroke="#A5D6A7" stroke-width="1.2" stroke-linecap="round"/>
<!-- Ayakan -->
<rect x="1210" y="115" width="38" height="28" rx="2" fill="none" stroke="#FF8F00" stroke-width="1.2"/>
<line x1="1216" y1="115" x2="1216" y2="143" stroke="#FF8F00" stroke-width="0.6" opacity="0.5"/>
<line x1="1222" y1="115" x2="1222" y2="143" stroke="#FF8F00" stroke-width="0.6" opacity="0.5"/>
<line x1="1228" y1="115" x2="1228" y2="143" stroke="#FF8F00" stroke-width="0.6" opacity="0.5"/>
<line x1="1234" y1="115" x2="1234" y2="143" stroke="#FF8F00" stroke-width="0.6" opacity="0.5"/>
<line x1="1240" y1="115" x2="1240" y2="143" stroke="#FF8F00" stroke-width="0.6" opacity="0.5"/>
<text x="1229" y="156" text-anchor="middle" font-size="8.5" fill="#E65100">60 mesh</text>
<!-- Teks -->
<text x="1280" y="105" font-size="11" font-weight="600" fill="#0C447C">Size Reduction</text>
<text x="1280" y="125" font-size="9.5" fill="#185FA5">Chopper + Ayak</text>
<text x="1280" y="140" font-size="9.5" fill="#185FA5">Lolos 60 mesh</text>
<text x="1280" y="155" font-size="9.5" fill="#378ADD">→ Serbuk simplisia</text>
<text x="1290" y="190" text-anchor="middle" font-size="10" font-weight="600" fill="#0C447C">4. Penyerbukan</text>

<!-- ════════════════ BRIDGE: SKRINING FITOKIMIA 1 ════════════════ -->
<!-- Panah turun ke skrining 1 -->
<line x1="1290" y1="205" x2="1290" y2="218" stroke="#639922" stroke-width="1.8"/>
<line x1="1290" y1="218" x2="750" y2="218" stroke="#639922" stroke-width="1.8"/>
<line x1="750" y1="218" x2="750" y2="232" stroke="#639922" stroke-width="1.8" marker-end="url(#arrow)"/>

<!-- Skrining 1 box (centered) -->
<rect x="380" y="232" width="740" height="42" rx="8" fill="#EAF3DE" stroke="#639922" stroke-width="0.9"/>
<!-- Tabung uji kiri -->
<rect x="400" y="240" width="9" height="26" rx="4" fill="#FFF9C4" stroke="#F9A825" stroke-width="0.6"/>
<rect x="400" y="240" width="9" height="9" rx="4" fill="#F9A825" opacity="0.5"/>
<rect x="414" y="240" width="9" height="26" rx="4" fill="#FAFAFA" stroke="#424242" stroke-width="0.6"/>
<rect x="414" y="240" width="9" height="9" rx="4" fill="#212121" opacity="0.7"/>


<!-- Teks skrining 1 -->
<text x="750" y="249" text-anchor="middle" font-size="11" font-weight="600" fill="#3B6D11">Skrining Fitokimia 1 — Serbuk Simplisia</text>
<text x="750" y="263" text-anchor="middle" font-size="9.5" fill="#639922">Uji Wilstatter (Mg + HCl) &amp; Uji FeCl₃ — memastikan senyawa target sebelum diekstraksi</text>

<!-- Panah turun ke Tahap 2 -->
<line x1="750" y1="274" x2="750" y2="290" stroke="#2E7D32" stroke-width="1.8"/>
<line x1="750" y1="290" x2="210" y2="290" stroke="#2E7D32" stroke-width="1.8"/>
<line x1="210" y1="290" x2="210" y2="304" stroke="#2E7D32" stroke-width="1.8" marker-end="url(#arrow)"/>

<!-- ════════════════ ROW 2: EKSTRAKSI MAE ════════════════ -->

<!-- Box 2.1: MAE -->
<rect x="40" y="305" width="340" height="125" rx="10" fill="#EAF3DE" stroke="#639922" stroke-width="0.9"/>
<!-- Microwave body -->
<rect x="60" y="328" width="100" height="58" rx="6" fill="#E0E0E0" stroke="#757575" stroke-width="1"/>
<rect x="160" y="328" width="22" height="58" rx="3" fill="#BDBDBD" stroke="#757575" stroke-width="0.7"/>
<rect x="64" y="332" width="64" height="50" rx="4" fill="#FAFAFA" stroke="#9E9E9E" stroke-width="0.5"/>
<rect x="68" y="336" width="56" height="42" rx="3" fill="#E3F2FD" opacity="0.7"/>
<!-- Labu di dalam -->
<ellipse cx="96" cy="365" rx="14" ry="9" fill="#C8E6C9" stroke="#4CAF50" stroke-width="0.6"/>
<ellipse cx="96" cy="356" rx="6" ry="8" fill="#A5D6A7" stroke="#388E3C" stroke-width="0.6"/>
<!-- Kondensor di atas -->
<rect x="88" y="316" width="16" height="14" rx="2" fill="#B3E5FC" stroke="#0288D1" stroke-width="0.7"/>
<line x1="94" y1="316" x2="94" y2="330" stroke="#0288D1" stroke-width="0.9" stroke-linecap="round"/>
<line x1="100" y1="316" x2="100" y2="330" stroke="#0288D1" stroke-width="0.9" stroke-linecap="round"/>
<!-- Panel kontrol -->
<rect x="163" y="332" width="16" height="50" rx="2" fill="#546E7A"/>
<circle cx="171" cy="346" r="3" fill="#FF7043"/>
<circle cx="171" cy="358" r="3" fill="#FFEB3B"/>
<rect x="165" y="368" width="12" height="6" rx="1" fill="#1565C0"/>
<!-- Teks MAE -->
<text x="220" y="335" font-size="13" font-weight="600" fill="#3B6D11">MAE</text>
<text x="220" y="355" font-size="10" fill="#3B6D11">Microwave-Assisted</text>
<text x="220" y="368" font-size="10" fill="#3B6D11">Extraction</text>
<text x="220" y="388" font-size="9.5" fill="#639922">Daya 400 W</text>
<text x="220" y="402" font-size="9.5" fill="#639922">Etanol 70%, 13 g</text>
<text x="210" y="420" text-anchor="middle" font-size="10" font-weight="600" fill="#3B6D11">5. Ekstraksi</text>

<!-- Panah -->
<line x1="380" y1="367" x2="398" y2="367" stroke="#639922" stroke-width="1.8" marker-end="url(#arrow)"/>

<!-- Box 2.2: Penyaringan -->
<rect x="400" y="305" width="340" height="125" rx="10" fill="#EAF3DE" stroke="#639922" stroke-width="0.9"/>
<!-- Corong + kertas saring -->
<path d="M460 326 L484 326 L494 366 L470 366 Z" fill="#FFF9C4" stroke="#F9A825" stroke-width="0.8"/>
<path d="M460 326 L484 326 L478 333 L466 333 Z" fill="#F9A825" opacity="0.4"/>
<line x1="467" y1="328" x2="475" y2="362" stroke="#F57F17" stroke-width="0.6"/>
<!-- Erlenmeyer di bawah -->
<path d="M462 372 L468 372 L478 398 L454 398 L462 372 Z" fill="#C8E6C9" stroke="#4CAF50" stroke-width="0.7"/>
<line x1="462" y1="372" x2="468" y2="372" stroke="#4CAF50" stroke-width="1.2" stroke-linecap="round"/>


<!-- Tetesan filtrat -->
<ellipse cx="479" cy="370" rx="1.8" ry="2.5" fill="#A5D6A7"/>
<!-- Teks Penyaringan -->
<text x="565" y="335" font-size="13" font-weight="600" fill="#3B6D11">Penyaringan</text>
<text x="565" y="358" font-size="10" fill="#3B6D11">Memisahkan filtrat</text>
<text x="565" y="372" font-size="10" fill="#3B6D11">dari ampas</text>
<text x="565" y="392" font-size="9.5" fill="#639922">Kertas Saring</text>
<text x="565" y="406" font-size="9.5" fill="#639922">Whatman No. 1</text>
<text x="570" y="420" text-anchor="middle" font-size="10" font-weight="600" fill="#3B6D11">6. Filtrasi</text>

<!-- Panah -->
<line x1="740" y1="367" x2="758" y2="367" stroke="#639922" stroke-width="1.8" marker-end="url(#arrow)"/>

<!-- Box 2.3: Rotary Evaporator -->
<rect x="760" y="305" width="340" height="125" rx="10" fill="#EAF3DE" stroke="#639922" stroke-width="0.9"/>
<!-- Labu puter -->
<ellipse cx="816" cy="370" rx="18" ry="18" fill="#C8E6C9" stroke="#4CAF50" stroke-width="0.9"/>
<ellipse cx="816" cy="370" rx="11" ry="11" fill="#A5D6A7" opacity="0.65"/>
<!-- Leher labu -->
<line x1="830" y1="358" x2="846" y2="342" stroke="#4CAF50" stroke-width="1.6" stroke-linecap="round"/>
<!-- Kondensor miring -->
<rect x="836" y="328" width="10" height="34" rx="4" fill="#B3E5FC" stroke="#0288D1" stroke-width="0.8" transform="rotate(-30 841 345)"/>
<!-- Water bath -->
<ellipse cx="816" cy="392" rx="22" ry="6" fill="#FFE0B2" stroke="#EF6C00" stroke-width="0.8"/>
<rect x="798" y="394" width="36" height="5" rx="2" fill="#FF8F00" opacity="0.65"/>
<!-- Motor -->
<rect x="862" y="334" width="14" height="10" rx="2" fill="#9E9E9E" stroke="#616161" stroke-width="0.6"/>
<circle cx="869" cy="339" r="3" fill="#616161"/>
<!-- Suhu -->
<rect x="862" y="364" width="22" height="10" rx="2" fill="#FFEBE0"/>
<text x="873" y="372" text-anchor="middle" font-size="8.5" fill="#E65100">50°C</text>
<!-- Teks Rotary -->
<text x="930" y="335" font-size="12" font-weight="600" fill="#3B6D11">Rotary Evaporator</text>
<text x="930" y="358" font-size="10" fill="#3B6D11">Pemekatan filtrat</text>
<text x="930" y="372" font-size="10" fill="#3B6D11">menguapkan etanol</text>
<text x="930" y="392" font-size="9.5" fill="#639922">T maksimum 50°C</text>
<text x="930" y="406" font-size="9.5" fill="#639922">Vakum, putar konstan</text>
<text x="930" y="420" text-anchor="middle" font-size="10" font-weight="600" fill="#3B6D11">7. Pemekatan</text>

<!-- Panah -->
<line x1="1100" y1="367" x2="1118" y2="367" stroke="#639922" stroke-width="1.8" marker-end="url(#arrow)"/>

<!-- Box 2.4: Ekstrak Kental 15 Sampel -->
<rect x="1120" y="305" width="340" height="125" rx="10" fill="#EAF3DE" stroke="#639922" stroke-width="0.9"/>
<!-- Grid 3x5 pot kecil -->
<g>
  <rect x="1138" y="320" width="14" height="10" rx="2" fill="#A5D6A7" stroke="#4CAF50" stroke-width="0.4"/>
  <rect x="1156" y="320" width="14" height="10" rx="2" fill="#81C784" stroke="#4CAF50" stroke-width="0.4"/>
  <rect x="1174" y="320" width="14" height="10" rx="2" fill="#66BB6A" stroke="#4CAF50" stroke-width="0.4"/>
  <rect x="1192" y="320" width="14" height="10" rx="2" fill="#4CAF50" stroke="#388E3C" stroke-width="0.4"/>
  <rect x="1210" y="320" width="14" height="10" rx="2" fill="#43A047" stroke="#388E3C" stroke-width="0.4"/>
  <rect x="1138" y="334" width="14" height="10" rx="2" fill="#A5D6A7" stroke="#4CAF50" stroke-width="0.4"/>
  <rect x="1156" y="334" width="14" height="10" rx="2" fill="#81C784" stroke="#4CAF50" stroke-width="0.4"/>
  <rect x="1174" y="334" width="14" height="10" rx="2" fill="#66BB6A" stroke="#4CAF50" stroke-width="0.4"/>
  <rect x="1192" y="334" width="14" height="10" rx="2" fill="#4CAF50" stroke="#388E3C" stroke-width="0.4"/>
  <rect x="1210" y="334" width="14" height="10" rx="2" fill="#43A047" stroke="#388E3C" stroke-width="0.4"/>


  <rect x="1138" y="348" width="14" height="10" rx="2" fill="#A5D6A7" stroke="#4CAF50" stroke-width="0.4"/>
  <rect x="1156" y="348" width="14" height="10" rx="2" fill="#81C784" stroke="#4CAF50" stroke-width="0.4"/>
  <rect x="1174" y="348" width="14" height="10" rx="2" fill="#66BB6A" stroke="#4CAF50" stroke-width="0.4"/>
  <rect x="1192" y="348" width="14" height="10" rx="2" fill="#4CAF50" stroke="#388E3C" stroke-width="0.4"/>
  <rect x="1210" y="348" width="14" height="10" rx="2" fill="#43A047" stroke="#388E3C" stroke-width="0.4"/>
</g>
<!-- Bintang penanda kode 1 (terbaik) -->
<circle cx="1145" cy="325" r="6" fill="none" stroke="#F9A825" stroke-width="0.9"/>
<!-- Teks ekstrak kental -->
<text x="1280" y="335" font-size="12" font-weight="600" fill="#3B6D11">Ekstrak Kental</text>
<text x="1280" y="358" font-size="10" fill="#3B6D11">15 Sampel (Kode 1-15)</text>
<text x="1280" y="372" font-size="10" fill="#3B6D11">variasi rasio &amp; waktu</text>
<text x="1280" y="392" font-size="9.5" fill="#639922">Pot krim, suhu ruang</text>
<text x="1280" y="406" font-size="9.5" fill="#639922">siap dianalisa</text>
<text x="1290" y="420" text-anchor="middle" font-size="10" font-weight="600" fill="#3B6D11">8. Pengumpulan</text>

<!-- ════════════════ BRIDGE: SKRINING FITOKIMIA 2 ════════════════ -->
<line x1="1290" y1="430" x2="1290" y2="443" stroke="#639922" stroke-width="1.8"/>
<line x1="1290" y1="443" x2="750" y2="443" stroke="#639922" stroke-width="1.8"/>
<line x1="750" y1="443" x2="750" y2="455" stroke="#639922" stroke-width="1.8" marker-end="url(#arrow)"/>

<!-- Skrining 2 box -->
<rect x="380" y="455" width="740" height="42" rx="8" fill="#EAF3DE" stroke="#639922" stroke-width="0.9"/>
<rect x="400" y="463" width="9" height="26" rx="4" fill="#FFF9C4" stroke="#F9A825" stroke-width="0.6"/>
<rect x="400" y="463" width="9" height="9" rx="4" fill="#F9A825" opacity="0.5"/>
<rect x="414" y="463" width="9" height="26" rx="4" fill="#FAFAFA" stroke="#424242" stroke-width="0.6"/>
<rect x="414" y="463" width="9" height="9" rx="4" fill="#212121" opacity="0.7"/>
<text x="750" y="472" text-anchor="middle" font-size="11" font-weight="600" fill="#3B6D11">Skrining Fitokimia 2 — Ekstrak Kental</text>
<text x="750" y="486" text-anchor="middle" font-size="9.5" fill="#639922">Verifikasi senyawa target — Hasil: FeCl₃ (++++), Wilstatter (–) → didominasi tanin / fenolik</text>

<!-- Panah turun ke Tahap 3 -->
<line x1="750" y1="497" x2="750" y2="513" stroke="#E65100" stroke-width="1.8" marker-end="url(#arrow)"/>

<!-- ════════════════ ROW 3: ANALISA & KARAKTERISASI ════════════════ -->

<!-- Top wide bar: Uji TFC 15 sampel -->
<rect x="40" y="515" width="1420" height="78" rx="10" fill="#FFF8E1" stroke="#F57F17" stroke-width="0.9"/>
<!-- Spektrofotometer kecil -->
<rect x="56" y="528" width="56" height="36" rx="4" fill="#F3E5F5" stroke="#7B1FA2" stroke-width="0.7"/>
<rect x="60" y="532" width="48" height="28" rx="2" fill="#CE93D8" opacity="0.3"/>
<path d="M64 552 Q76 540 88 552 Q100 564 108 546" fill="none" stroke="#7B1FA2" stroke-width="1.3"/>
<!-- Tabung gradien kuersetin -->
<rect x="120" y="532" width="9" height="28" rx="4" fill="#FFEE58" stroke="#F9A825" stroke-width="0.5"/>
<rect x="131" y="532" width="9" height="22" rx="4" fill="#FDD835" stroke="#F9A825" stroke-width="0.5"/>
<rect x="142" y="532" width="9" height="17" rx="4" fill="#F9A825" stroke="#EF6C00" stroke-width="0.5"/>
<rect x="153" y="532" width="9" height="12" rx="4" fill="#FF8F00" stroke="#EF6C00" stroke-width="0.5"/>
<rect x="164" y="532" width="9" height="8" rx="4" fill="#EF6C00" stroke="#BF360C" stroke-width="0.5"/>
<text x="146" y="572" text-anchor="middle" font-size="8" fill="#BF360C">Standar Kuersetin</text>


<!-- Teks Uji TFC -->
<text x="200" y="538" font-size="13" font-weight="600" fill="#E65100">Uji Total Flavonoid Content (TFC) — 15 Sampel</text>
<text x="200" y="556" font-size="10" fill="#E65100">Metode Kolorimetri AlCl₃  |  Standar Kuersetin  |  λ = 432 nm</text>
<text x="200" y="572" font-size="10" fill="#F57F17">Menentukan kondisi operasi dengan TFC tertinggi dan terendah dari 15 sampel</text>
<text x="200" y="588" font-size="10" font-weight="600" fill="#BF360C">Hasil:  Kode 1 (TFC = 0,160%) → TERBAIK   |   Kode 8 (TFC = 0,070%) → TERENDAH</text>

<!-- Penanda hasil di kanan -->
<rect x="1180" y="528" width="270" height="58" rx="6" fill="#FFE0B2" opacity="0.6" stroke="#E65100" stroke-width="0.6"/>
<text x="1315" y="546" text-anchor="middle" font-size="10" font-weight="600" fill="#BF360C">Sampel terpilih untuk uji lanjutan:</text>
<circle cx="1220" cy="566" r="11" fill="#43A047" stroke="#1B5E20" stroke-width="0.8"/>
<text x="1220" y="570" text-anchor="middle" font-size="11" font-weight="700" fill="#FFFFFF">1</text>
<text x="1220" y="585" text-anchor="middle" font-size="8" fill="#1B5E20">terbaik</text>
<text x="1265" y="571" font-size="13" font-weight="600" fill="#BF360C">&amp;</text>
<circle cx="1310" cy="566" r="11" fill="#A5D6A7" stroke="#388E3C" stroke-width="0.8"/>
<text x="1310" y="570" text-anchor="middle" font-size="11" font-weight="700" fill="#1B5E20">8</text>
<text x="1310" y="585" text-anchor="middle" font-size="8" fill="#388E3C">terendah</text>
<text x="1395" y="571" font-size="10" fill="#BF360C">→ uji lanjut</text>

<!-- Panah bercabang turun ke 3 sub-uji -->
<line x1="750" y1="593" x2="750" y2="608" stroke="#E65100" stroke-width="1.8"/>
<line x1="270" y1="608" x2="1230" y2="608" stroke="#E65100" stroke-width="1.8"/>
<line x1="270" y1="608" x2="270" y2="622" stroke="#E65100" stroke-width="1.8" marker-end="url(#arrow)"/>
<line x1="750" y1="608" x2="750" y2="622" stroke="#E65100" stroke-width="1.8" marker-end="url(#arrow)"/>
<line x1="1230" y1="608" x2="1230" y2="622" stroke="#E65100" stroke-width="1.8" marker-end="url(#arrow)"/>

<!-- Sub-uji 1: DPPH -->
<rect x="40" y="623" width="460" height="115" rx="10" fill="#FFF8E1" stroke="#F57F17" stroke-width="0.9"/>
<text x="270" y="643" text-anchor="middle" font-size="12" font-weight="600" fill="#E65100">Uji Antioksidan DPPH</text>
<text x="270" y="658" text-anchor="middle" font-size="9.5" fill="#F57F17">Sampel: Kode 1 &amp; Kode 8</text>
<!-- Tabung DPPH ungu → kuning -->
<rect x="62" y="670" width="11" height="30" rx="5" fill="#9C27B0" stroke="#6A1B9A" stroke-width="0.6"/>
<rect x="62" y="670" width="11" height="11" rx="5" fill="#7B1FA2"/>
<line x1="78" y1="685" x2="92" y2="685" stroke="#616161" stroke-width="1" marker-end="url(#arrow)"/>
<rect x="96" y="670" width="11" height="30" rx="5" fill="#FFEE58" stroke="#F9A825" stroke-width="0.6"/>
<rect x="96" y="670" width="11" height="7" rx="5" fill="#FDD835"/>
<text x="84" y="715" text-anchor="middle" font-size="8" fill="#7B1FA2">DPPH (sebelum → sesudah)</text>
<!-- Grafik IC50 mini -->
<rect x="135" y="670" width="60" height="36" rx="2" fill="none" stroke="#9E9E9E" stroke-width="0.5"/>
<path d="M140 700 L150 690 L160 680 L170 672 L180 668 L188 666" fill="none" stroke="#E65100" stroke-width="1.2"/>
<line x1="135" y1="688" x2="195" y2="688" stroke="#9E9E9E" stroke-width="0.4" stroke-dasharray="2 2"/>
<text x="165" y="718" text-anchor="middle" font-size="7.5" fill="#9E9E9E">kurva IC₅₀</text>
<!-- Hasil DPPH -->
<text x="220" y="678" font-size="10" font-weight="600" fill="#E65100">Hasil IC₅₀:</text>
<text x="220" y="694" font-size="10" fill="#F57F17">Kode 1 = 224,47 ppm</text>
<text x="220" y="710" font-size="10" fill="#F57F17">Kode 8 = 391,75 ppm</text>
<text x="220" y="728" font-size="9.5" font-weight="600" fill="#BF360C">Kategori: Lemah (&gt; 200 ppm)</text>



<!-- Sub-uji 2: Fenolik Total -->
<rect x="520" y="623" width="460" height="115" rx="10" fill="#FFF8E1" stroke="#F57F17" stroke-width="0.9"/>
<text x="750" y="643" text-anchor="middle" font-size="12" font-weight="600" fill="#E65100">Uji Fenolik Total</text>
<text x="750" y="658" text-anchor="middle" font-size="9.5" fill="#F57F17">Sampel: Kode 1 &amp; Kode 8</text>
<!-- Tabung biru -->
<rect x="542" y="670" width="11" height="30" rx="5" fill="#1565C0" stroke="#0D47A1" stroke-width="0.6"/>
<rect x="542" y="670" width="11" height="11" rx="5" fill="#0D47A1"/>
<rect x="558" y="670" width="11" height="30" rx="5" fill="#4FC3F7" stroke="#0288D1" stroke-width="0.6"/>
<rect x="558" y="670" width="11" height="7" rx="5" fill="#0288D1"/>
<text x="556" y="715" text-anchor="middle" font-size="8" fill="#0D47A1">Folin-Ciocalteu</text>
<!-- Diagram batang -->
<rect x="592" y="690" width="14" height="14" rx="1" fill="#1565C0"/>
<rect x="612" y="678" width="14" height="26" rx="1" fill="#0D47A1"/>
<text x="599" y="718" text-anchor="middle" font-size="7.5" fill="#1565C0">K8</text>
<text x="619" y="718" text-anchor="middle" font-size="7.5" fill="#0D47A1">K1</text>
<!-- Hasil Fenolik -->
<text x="660" y="678" font-size="10" font-weight="600" fill="#E65100">Hasil:</text>
<text x="660" y="694" font-size="10" fill="#F57F17">λ = 755 nm</text>
<text x="660" y="710" font-size="10" fill="#F57F17">Kode 1 = 4,905%</text>
<text x="660" y="726" font-size="10" fill="#F57F17">Kode 8 = 2,790%</text>

<!-- Sub-uji 3: Tanin & FTIR -->
<rect x="1000" y="623" width="460" height="115" rx="10" fill="#FFF8E1" stroke="#F57F17" stroke-width="0.9"/>
<text x="1230" y="643" text-anchor="middle" font-size="12" font-weight="600" fill="#E65100">Uji Tanin &amp; FTIR</text>
<text x="1230" y="658" text-anchor="middle" font-size="9.5" fill="#F57F17">Sampel: Kode 1 (terbaik)</text>
<!-- Spektrum FTIR -->
<rect x="1018" y="670" width="68" height="36" rx="2" fill="none" stroke="#9E9E9E" stroke-width="0.5"/>
<path d="M1022 698 L1028 688 L1032 696 L1036 678 L1042 692 L1046 680 L1050 696 L1056 682 L1062 690 L1068 672 L1076 686 L1082 698" fill="none" stroke="#7B1FA2" stroke-width="1.1"/>
<text x="1052" y="718" text-anchor="middle" font-size="8" fill="#7B1FA2">Spektrum FTIR</text>
<!-- Tabung tanin -->
<rect x="1100" y="670" width="11" height="30" rx="5" fill="#A1887F" stroke="#6D4C41" stroke-width="0.6"/>
<rect x="1100" y="670" width="11" height="9" rx="5" fill="#795548"/>
<text x="1106" y="715" text-anchor="middle" font-size="8" fill="#6D4C41">Tanin</text>
<!-- Hasil Tanin/FTIR -->
<text x="1140" y="678" font-size="10" font-weight="600" fill="#E65100">Hasil:</text>
<text x="1140" y="694" font-size="9.5" fill="#F57F17">Konfirmasi dominasi tanin</text>
<text x="1140" y="710" font-size="9.5" fill="#F57F17">Identifikasi gugus fungsi</text>
<text x="1140" y="726" font-size="9" fill="#9E9E9E" font-style="italic">(Hasil FTIR menyusul)</text>

<!-- Panah turun ke Tahap 4 -->
<line x1="750" y1="738" x2="750" y2="753" stroke="#AD1457" stroke-width="1.8"/>
<line x1="750" y1="753" x2="210" y2="753" stroke="#AD1457" stroke-width="1.8"/>
<line x1="210" y1="753" x2="210" y2="767" stroke="#AD1457" stroke-width="1.8" marker-end="url(#arrow)"/>


<!-- ════════════════ ROW 4: APLIKASI PT INHUTANI V ════════════════ -->

<!-- Box 4.1: Persiapan Larutan -->
<rect x="40" y="768" width="340" height="115" rx="10" fill="#FBEAF0" stroke="#AD1457" stroke-width="0.9"/>
<!-- Beaker -->
<path d="M70 790 L74 790 L80 822 L64 822 Z" fill="#F8BBD0" stroke="#AD1457" stroke-width="0.7"/>
<path d="M70 790 L74 790" stroke="#AD1457" stroke-width="1.1" stroke-linecap="round"/>
<!-- Botol ekstrak -->
<rect x="92" y="788" width="16" height="24" rx="3" fill="#A5D6A7" stroke="#388E3C" stroke-width="0.6"/>
<rect x="95" y="783" width="10" height="6" rx="2" fill="#C8E6C9" stroke="#4CAF50" stroke-width="0.5"/>
<text x="100" y="803" text-anchor="middle" font-size="6.5" fill="#1B5E20" font-weight="600">EKS</text>
<!-- Botol oksalat -->
<rect x="118" y="790" width="14" height="22" rx="3" fill="#B3E5FC" stroke="#0288D1" stroke-width="0.6"/>
<rect x="120" y="785" width="10" height="6" rx="2" fill="#E1F5FE" stroke="#0288D1" stroke-width="0.5"/>
<text x="125" y="803" text-anchor="middle" font-size="6.5" fill="#01579B" font-weight="600">OA</text>
<!-- Konsentrasi labels -->
<rect x="144" y="788" width="20" height="11" rx="2" fill="#F8BBD0"/>
<text x="154" y="797" text-anchor="middle" font-size="8" fill="#AD1457">0,1%</text>
<rect x="144" y="801" width="20" height="11" rx="2" fill="#F48FB1"/>
<text x="154" y="810" text-anchor="middle" font-size="8" fill="#FFFFFF">0,2%</text>
<rect x="144" y="814" width="20" height="11" rx="2" fill="#EC407A"/>
<text x="154" y="823" text-anchor="middle" font-size="8" fill="#FFFFFF">0,3%</text>
<!-- Teks -->
<text x="220" y="795" font-size="12" font-weight="600" fill="#880E4F">Persiapan Larutan</text>
<text x="220" y="815" font-size="10" fill="#AD1457">Ekstrak vs Oksalat</text>
<text x="220" y="831" font-size="10" fill="#AD1457">3 variasi konsentrasi</text>
<text x="220" y="850" font-size="9.5" fill="#C2185B">0,1% / 0,2% / 0,3%</text>
<text x="210" y="872" text-anchor="middle" font-size="10" font-weight="600" fill="#880E4F">9. Persiapan</text>

<!-- Panah -->
<line x1="380" y1="825" x2="398" y2="825" stroke="#AD1457" stroke-width="1.8" marker-end="url(#arrow)"/>

<!-- Box 4.2: Pencucian Getah -->
<rect x="400" y="768" width="340" height="115" rx="10" fill="#FBEAF0" stroke="#AD1457" stroke-width="0.9"/>
<!-- Tangki -->
<rect x="430" y="785" width="72" height="42" rx="4" fill="#F8BBD0" stroke="#AD1457" stroke-width="0.8"/>
<path d="M432 815 Q466 805 502 815 L502 825 L432 825 Z" fill="#FFE0B2" opacity="0.75"/>
<circle cx="448" cy="806" r="3" fill="none" stroke="#E91E63" stroke-width="0.7"/>
<circle cx="466" cy="803" r="2" fill="none" stroke="#E91E63" stroke-width="0.7"/>
<circle cx="484" cy="806" r="3" fill="none" stroke="#E91E63" stroke-width="0.7"/>
<line x1="430" y1="797" x2="418" y2="797" stroke="#0288D1" stroke-width="1.6" stroke-linecap="round"/>
<line x1="502" y1="813" x2="514" y2="813" stroke="#FF8F00" stroke-width="1.6" stroke-linecap="round"/>
<text x="466" y="845" text-anchor="middle" font-size="8.5" fill="#AD1457">Tangki proses</text>
<!-- Teks -->
<text x="565" y="795" font-size="12" font-weight="600" fill="#880E4F">Pencucian Getah</text>
<text x="565" y="815" font-size="10" fill="#AD1457">Substitusi asam oksalat</text>
<text x="565" y="831" font-size="10" fill="#AD1457">dengan ekstrak serasah</text>
<text x="565" y="850" font-size="9.5" fill="#C2185B">sebagai antioksidan alami</text>
<text x="570" y="872" text-anchor="middle" font-size="10" font-weight="600" fill="#880E4F">10. Pencucian</text>

<!-- Panah -->
<line x1="740" y1="825" x2="758" y2="825" stroke="#AD1457" stroke-width="1.8" marker-end="url(#arrow)"/>


<!-- Box 4.3: Distilasi -->
<rect x="760" y="768" width="340" height="115" rx="10" fill="#FBEAF0" stroke="#AD1457" stroke-width="0.9"/>
<!-- Kolom distilasi -->
<rect x="800" y="785" width="22" height="50" rx="4" fill="#E8F5E9" stroke="#2E7D32" stroke-width="0.8"/>
<rect x="794" y="836" width="34" height="9" rx="3" fill="#FF7043" opacity="0.65"/>
<!-- Kondensor samping -->
<rect x="822" y="794" width="32" height="9" rx="4" fill="#B3E5FC" stroke="#0288D1" stroke-width="0.6" transform="rotate(-15 838 798)"/>
<!-- Produk rosin -->
<path d="M794 845 L808 845 L805 862 L797 862 Z" fill="#FFB300" opacity="0.85"/>
<text x="800" y="875" text-anchor="middle" font-size="7.5" fill="#E65100" font-weight="600">Gum Rosin</text>
<!-- Uap terpentin -->
<path d="M810 785 Q815 776 808 768" fill="none" stroke="#90A4AE" stroke-width="0.9" stroke-dasharray="2 2"/>
<path d="M816 785 Q820 778 815 770" fill="none" stroke="#90A4AE" stroke-width="0.9" stroke-dasharray="2 2"/>
<text x="868" y="775" font-size="7.5" fill="#607D8B">Terpentin ↑</text>
<!-- Teks -->
<text x="930" y="795" font-size="12" font-weight="600" fill="#880E4F">Distilasi</text>
<text x="930" y="815" font-size="10" fill="#AD1457">Getah → Gum Rosin</text>
<text x="930" y="831" font-size="10" fill="#AD1457">+ Terpentin (uap)</text>
<text x="930" y="850" font-size="9.5" fill="#C2185B">Pemanasan + kondensasi</text>
<text x="930" y="872" text-anchor="middle" font-size="10" font-weight="600" fill="#880E4F">11. Distilasi</text>

<!-- Panah -->
<line x1="1100" y1="825" x2="1118" y2="825" stroke="#AD1457" stroke-width="1.8" marker-end="url(#arrow)"/>

<!-- Box 4.4: Uji Gum Rosin -->
<rect x="1120" y="768" width="340" height="115" rx="10" fill="#FBEAF0" stroke="#AD1457" stroke-width="0.9"/>
<!-- Parameter mini cards 2x2 -->
<rect x="1136" y="780" width="74" height="22" rx="3" fill="#FFD54F" opacity="0.75"/>
<text x="1173" y="794" text-anchor="middle" font-size="9" font-weight="600" fill="#E65100">NV ≥ 95%</text>
<rect x="1136" y="806" width="74" height="22" rx="3" fill="#FFAB91" opacity="0.75"/>
<text x="1173" y="820" text-anchor="middle" font-size="9" font-weight="600" fill="#BF360C">AV ~186-190</text>
<rect x="1136" y="832" width="74" height="22" rx="3" fill="#CE93D8" opacity="0.65"/>
<text x="1173" y="846" text-anchor="middle" font-size="9" font-weight="600" fill="#4A148C">SP 78-81°C</text>
<!-- Skala warna Gardner -->
<text x="1255" y="788" text-anchor="middle" font-size="8.5" fill="#AD1457" font-weight="600">Gardner Color Scale</text>
<rect x="1218" y="794" width="11" height="14" rx="1" fill="#FFEE58"/>
<rect x="1230" y="794" width="11" height="14" rx="1" fill="#FFD740"/>
<rect x="1242" y="794" width="11" height="14" rx="1" fill="#FFB300"/>
<rect x="1254" y="794" width="11" height="14" rx="1" fill="#FF8F00"/>
<rect x="1266" y="794" width="11" height="14" rx="1" fill="#E65100"/>
<rect x="1278" y="794" width="11" height="14" rx="1" fill="#BF360C"/>
<text x="1253" y="822" text-anchor="middle" font-size="8" fill="#AD1457">terang ← → gelap</text>
<!-- Teks -->
<text x="1290" y="838" font-size="11" font-weight="600" fill="#880E4F">Uji Mutu Gum Rosin</text>
<text x="1290" y="854" font-size="9" fill="#AD1457">NV, AV, Warna, Softening Pt.</text>
<text x="1290" y="867" font-size="9" fill="#C2185B">SNI 7636:2011</text>
<text x="1290" y="880" text-anchor="middle" font-size="10" font-weight="600" fill="#880E4F">12. Pengujian Mutu</text>

<!-- Panah turun ke hasil -->
<line x1="750" y1="883" x2="750" y2="897" stroke="#1B4D7E" stroke-width="1.8" marker-end="url(#arrow)"/>


<!-- ════════════════ HASIL AKHIR ════════════════ -->
<rect x="100" y="897" width="1300" height="78" rx="12" fill="#1B4D7E" opacity="0.92"/>
<!-- Bintang dekorasi kiri -->
<circle cx="130" cy="936" r="14" fill="#FFB300" opacity="0.25"/>
<text x="130" y="941" text-anchor="middle" font-size="20" fill="#FFB300">★</text>
<!-- Bintang dekorasi kanan -->
<circle cx="1370" cy="936" r="14" fill="#FFB300" opacity="0.25"/>
<text x="1370" y="941" text-anchor="middle" font-size="20" fill="#FFB300">★</text>
<!-- Teks hasil -->
<text x="750" y="920" text-anchor="middle" font-size="12" font-weight="600" fill="#FFFFFF">Hasil — Kondisi Optimal: Kode 1 (Rasio 1:15, Waktu 5 Menit, Daya 400 W)</text>
<text x="750" y="940" text-anchor="middle" font-size="10" fill="#B5D4F4">TFC = 0,160%   |   IC₅₀ = 224,47 ppm   |   Fenolik Total = 4,905%   |   Ekstrak D (0,3%) → Warna Gum Rosin terbaik (Gardner 6,8)</text>
<text x="750" y="960" text-anchor="middle" font-size="10" font-style="italic" fill="#85B7EB">Mendukung Circular Economy &amp; Zero Waste pada Industri Gondorukem</text>

<!-- Legend warna fase -->
<g font-size="9.5">
  <rect x="100" y="985" width="14" height="9" rx="2" fill="#378ADD" opacity="0.75"/>
  <text x="120" y="993" fill="#0C447C" font-weight="500">Preparasi Sampel</text>
  <rect x="280" y="985" width="14" height="9" rx="2" fill="#639922" opacity="0.75"/>
  <text x="300" y="993" fill="#3B6D11" font-weight="500">Ekstraksi MAE</text>
  <rect x="450" y="985" width="14" height="9" rx="2" fill="#F57F17" opacity="0.75"/>
  <text x="470" y="993" fill="#E65100" font-weight="500">Analisa &amp; Karakterisasi</text>
  <rect x="650" y="985" width="14" height="9" rx="2" fill="#AD1457" opacity="0.75"/>
  <text x="670" y="993" fill="#880E4F" font-weight="500">Aplikasi Industri (PT Inhutani V)</text>
  <rect x="930" y="985" width="14" height="9" rx="2" fill="#1B4D7E" opacity="0.75"/>
  <text x="950" y="993" fill="#1B4D7E" font-weight="500">Hasil Penelitian</text>
</g>

</svg>
